# xmcd
#
# Track frame offsets: 
#        150
#        11319
#        24404
#        34935
#        47159
#        58503
#        68758
#        79709
#        91718
#        102579
#        114731
#        126628
#        140919
#        154658
#        168507
#        182089
#        193211
#        202872
#        215882
#        227807
#        241720
#        252503
#        264891
#        276139
#        286518
#        296727
#        306266
#        315434
#        327773
#        339890
#
# Disc length: 4681 seconds
#
# Revision: 0
# Processed by: cddbd v1.5.2PL0 Copyright (c) Steve Scherf et al.
# Submitted via: ExactAudioCopy v0.99pb4
#
DISCID=b212471e
DTITLE=T-Bone Walker - Papa Ain't Salty - CD 2
DYEAR=2005
DGENRE=Blues
TTITLE0=Strollin' With Bone
TTITLE1=You Don't Love Me
TTITLE2=Travellin' Blues
TTITLE3=Baby Broke My Heart
TTITLE4=Evil Hearted Woman
TTITLE5=I Walked Away
TTITLE6=Look Me In The Eye
TTITLE7=Alimony Blues
TTITLE8=Welcome Baby (Say Pretty Baby)
TTITLE9=I Got So Weary
TTITLE10=Tell Me What's The Reason
TTITLE11=Cold, Cold Feeling
TTITLE12=Get Those Blues Off Me
TTITLE13=Street Walking Woman
TTITLE14=Here In The Dark
TTITLE15=Every Time
TTITLE16=Party Girl
TTITLE17=Love Is A Gamble
TTITLE18=Got No Use For You
TTITLE19=I'm Still In Love With You
TTITLE20=Vida Lee
TTITLE21=Bye, Bye Baby
TTITLE22=When The Sun Goes Down
TTITLE23=Pony Tail
TTITLE24=I'll Always Be In Love With You
TTITLE25=Hard Way
TTITLE26=Teen Age Baby
TTITLE27=Papa Ain't Salty
TTITLE28=Why Not
TTITLE29=Play On Little Girl
EXTD=
EXTT0=
EXTT1=
EXTT2=
EXTT3=
EXTT4=
EXTT5=
EXTT6=
EXTT7=
EXTT8=
EXTT9=
EXTT10=
EXTT11=
EXTT12=
EXTT13=
EXTT14=
EXTT15=
EXTT16=
EXTT17=
EXTT18=
EXTT19=
EXTT20=
EXTT21=
EXTT22=
EXTT23=
EXTT24=
EXTT25=
EXTT26=
EXTT27=
EXTT28=
EXTT29=
PLAYORDER=
